{
  "asset": {
    "generator": "Khronos glTF Blender I/O v4.0.44",
    "version": "2.0"
  },
  "scene": 0,
  "scenes": [
    {
      "name": "Scene",
      "nodes": [
        0
      ]
    }
  ],
  "nodes": [
    {
      "mesh": 0,
      "name": "painted_wooden_chair_02",
      "rotation": [
        0,
        -0.7071068286895752,
        0,
        0.7071068286895752
      ]
    }
  ],
  "materials": [
    {
      "doubleSided": true,
      "name": "painted_wooden_chair_02",
      "normalTexture": {
        "index": 0
      },
      "pbrMetallicRoughness": {
        "baseColorTexture": {
          "index": 1
        },
        "metallicFactor": 0,
        "metallicRoughnessTexture": {
          "index": 2
        }
      }
    }
  ],
  "meshes": [
    {
      "name": "chair.001",
      "primitives": [
        {
          "attributes": {
            "POSITION": 0,
            "NORMAL": 1,
            "TEXCOORD_0": 2
          },
          "indices": 3,
          "material": 0
        }
      ]
    }
  ],
  "textures": [
    {
      "sampler": 0,
      "source": 0
    },
    {
      "sampler": 0,
      "source": 1
    },
    {
      "sampler": 0,
      "source": 2
    }
  ],
  "images": [
    {
      "mimeType": "image/jpeg",
      "name": "painted_wooden_chair_02_nor_gl",
      "uri": "textures/painted_wooden_chair_02_nor_gl_1k.jpg"
    },
    {
      "mimeType": "image/jpeg",
      "name": "painted_wooden_chair_02_diff",
      "uri": "textures/painted_wooden_chair_02_diff_1k.jpg"
    },
    {
      "mimeType": "image/jpeg",
      "name": "painted_wooden_chair_02_rough",
      "uri": "textures/painted_wooden_chair_02_arm_1k.jpg"
    }
  ],
  "accessors": [
    {
      "bufferView": 0,
      "componentType": 5126,
      "count": 986,
      "max": [
        0.2988217771053314,
        1.2637710571289062,
        0.33486685156822205
      ],
      "min": [
        -0.3632759153842926,
        -3.3275536992505295e-8,
        -0.30452263355255127
      ],
      "type": "VEC3"
    },
    {
      "bufferView": 1,
      "componentType": 5126,
      "count": 986,
      "type": "VEC3"
    },
    {
      "bufferView": 2,
      "componentType": 5126,
      "count": 986,
      "type": "VEC2"
    },
    {
      "bufferView": 3,
      "componentType": 5123,
      "count": 3738,
      "type": "SCALAR"
    }
  ],
  "bufferViews": [
    {
      "buffer": 0,
      "byteLength": 11832,
      "byteOffset": 0,
      "target": 34962
    },
    {
      "buffer": 0,
      "byteLength": 11832,
      "byteOffset": 11832,
      "target": 34962
    },
    {
      "buffer": 0,
      "byteLength": 7888,
      "byteOffset": 23664,
      "target": 34962
    },
    {
      "buffer": 0,
      "byteLength": 7476,
      "byteOffset": 31552,
      "target": 34963
    }
  ],
  "samplers": [
    {
      "magFilter": 9729,
      "minFilter": 9987
    }
  ],
  "buffers": [
    {
      "byteLength": 39028,
      "uri": "painted_wooden_chair_02.bin"
    }
  ]
}