{
  "asset": {
    "generator": "Khronos glTF Blender I/O v1.6.16",
    "version": "2.0"
  },
  "scene": 0,
  "scenes": [
    {
      "name": "Scene",
      "nodes": [
        0
      ]
    }
  ],
  "nodes": [
    {
      "mesh": 0,
      "name": "barrel_03"
    }
  ],
  "materials": [
    {
      "doubleSided": true,
      "name": "barrel_03",
      "normalTexture": {
        "index": 0
      },
      "pbrMetallicRoughness": {
        "baseColorTexture": {
          "index": 1
        },
        "metallicRoughnessTexture": {
          "index": 2
        }
      }
    }
  ],
  "meshes": [
    {
      "name": "Circle.002",
      "primitives": [
        {
          "attributes": {
            "POSITION": 0,
            "NORMAL": 1,
            "TEXCOORD_0": 2
          },
          "indices": 3,
          "material": 0
        }
      ]
    }
  ],
  "textures": [
    {
      "sampler": 0,
      "source": 0
    },
    {
      "sampler": 0,
      "source": 1
    },
    {
      "sampler": 0,
      "source": 2
    }
  ],
  "images": [
    {
      "mimeType": "image/jpeg",
      "name": "barrel_03_nor_gl",
      "uri": "textures/barrel_03_nor_gl_2k.jpg"
    },
    {
      "mimeType": "image/jpeg",
      "name": "barrel_03_diff",
      "uri": "textures/barrel_03_diff_2k.jpg"
    },
    {
      "mimeType": "image/jpeg",
      "name": "barrel_03_metal-barrel_03_rough",
      "uri": "textures/barrel_03_arm_2k.jpg"
    }
  ],
  "accessors": [
    {
      "bufferView": 0,
      "componentType": 5126,
      "count": 1126,
      "max": [
        0.3169717788696289,
        0.9304735064506531,
        0.3193000555038452
      ],
      "min": [
        -0.31697171926498413,
        -1.1793932941372987e-7,
        -0.31929945945739746
      ],
      "type": "VEC3"
    },
    {
      "bufferView": 1,
      "componentType": 5126,
      "count": 1126,
      "type": "VEC3"
    },
    {
      "bufferView": 2,
      "componentType": 5126,
      "count": 1126,
      "type": "VEC2"
    },
    {
      "bufferView": 3,
      "componentType": 5123,
      "count": 4419,
      "type": "SCALAR"
    }
  ],
  "bufferViews": [
    {
      "buffer": 0,
      "byteLength": 13512,
      "byteOffset": 0
    },
    {
      "buffer": 0,
      "byteLength": 13512,
      "byteOffset": 13512
    },
    {
      "buffer": 0,
      "byteLength": 9008,
      "byteOffset": 27024
    },
    {
      "buffer": 0,
      "byteLength": 8838,
      "byteOffset": 36032
    }
  ],
  "samplers": [
    {
      "magFilter": 9729,
      "minFilter": 9987
    }
  ],
  "buffers": [
    {
      "byteLength": 44872,
      "uri": "barrel_03.bin"
    }
  ]
}