{
  "asset": {
    "generator": "Khronos glTF Blender I/O v1.6.16",
    "version": "2.0"
  },
  "scene": 0,
  "scenes": [
    {
      "name": "Scene",
      "nodes": [
        0
      ]
    }
  ],
  "nodes": [
    {
      "mesh": 0,
      "name": "painted_wooden_chair_01"
    }
  ],
  "materials": [
    {
      "doubleSided": true,
      "name": "painted_wooden_chair_01",
      "normalTexture": {
        "index": 0
      },
      "pbrMetallicRoughness": {
        "baseColorTexture": {
          "index": 1
        },
        "metallicRoughnessTexture": {
          "index": 2
        }
      }
    }
  ],
  "meshes": [
    {
      "name": "Box.041",
      "primitives": [
        {
          "attributes": {
            "POSITION": 0,
            "NORMAL": 1,
            "TEXCOORD_0": 2
          },
          "indices": 3,
          "material": 0
        }
      ]
    }
  ],
  "textures": [
    {
      "sampler": 0,
      "source": 0
    },
    {
      "sampler": 0,
      "source": 1
    },
    {
      "sampler": 0,
      "source": 2
    }
  ],
  "images": [
    {
      "mimeType": "image/jpeg",
      "name": "painted_wooden_chair_01_nor_gl",
      "uri": "textures/painted_wooden_chair_01_nor_gl_1k.jpg"
    },
    {
      "mimeType": "image/jpeg",
      "name": "painted_wooden_chair_01_diff.png",
      "uri": "textures/painted_wooden_chair_01_diff_1k.jpg"
    },
    {
      "mimeType": "image/jpeg",
      "name": "painted_wooden_chair_01_metal-painted_wooden_chair_01_rough.png",
      "uri": "textures/painted_wooden_chair_01_arm_1k.jpg"
    }
  ],
  "accessors": [
    {
      "bufferView": 0,
      "componentType": 5126,
      "count": 1024,
      "max": [
        0.21435128152370453,
        0.9557405710220337,
        0.23922492563724518
      ],
      "min": [
        -0.21740016341209412,
        -0.0007415645522996783,
        -0.30059924721717834
      ],
      "type": "VEC3"
    },
    {
      "bufferView": 1,
      "componentType": 5126,
      "count": 1024,
      "type": "VEC3"
    },
    {
      "bufferView": 2,
      "componentType": 5126,
      "count": 1024,
      "type": "VEC2"
    },
    {
      "bufferView": 3,
      "componentType": 5123,
      "count": 2172,
      "type": "SCALAR"
    }
  ],
  "bufferViews": [
    {
      "buffer": 0,
      "byteLength": 12288,
      "byteOffset": 0
    },
    {
      "buffer": 0,
      "byteLength": 12288,
      "byteOffset": 12288
    },
    {
      "buffer": 0,
      "byteLength": 8192,
      "byteOffset": 24576
    },
    {
      "buffer": 0,
      "byteLength": 4344,
      "byteOffset": 32768
    }
  ],
  "samplers": [
    {
      "magFilter": 9729,
      "minFilter": 9987
    }
  ],
  "buffers": [
    {
      "byteLength": 37112,
      "uri": "painted_wooden_chair_01.bin"
    }
  ]
}