{
  "asset": {
    "generator": "Khronos glTF Blender I/O v4.0.44",
    "version": "2.0"
  },
  "scene": 0,
  "scenes": [
    {
      "name": "Scene",
      "nodes": [
        0
      ]
    }
  ],
  "nodes": [
    {
      "mesh": 0,
      "name": "painted_wooden_table"
    }
  ],
  "materials": [
    {
      "doubleSided": true,
      "name": "painted_wooden_table",
      "normalTexture": {
        "index": 0
      },
      "pbrMetallicRoughness": {
        "baseColorTexture": {
          "index": 1
        },
        "metallicFactor": 0,
        "metallicRoughnessTexture": {
          "index": 2
        }
      }
    }
  ],
  "meshes": [
    {
      "name": "table.008",
      "primitives": [
        {
          "attributes": {
            "POSITION": 0,
            "NORMAL": 1,
            "TEXCOORD_0": 2
          },
          "indices": 3,
          "material": 0
        }
      ]
    }
  ],
  "textures": [
    {
      "sampler": 0,
      "source": 0
    },
    {
      "sampler": 0,
      "source": 1
    },
    {
      "sampler": 0,
      "source": 2
    }
  ],
  "images": [
    {
      "mimeType": "image/jpeg",
      "name": "painted_wooden_table_nor_gl",
      "uri": "textures/painted_wooden_table_nor_gl_1k.jpg"
    },
    {
      "mimeType": "image/jpeg",
      "name": "painted_wooden_table_diff",
      "uri": "textures/painted_wooden_table_diff_1k.jpg"
    },
    {
      "mimeType": "image/jpeg",
      "name": "painted_wooden_table_rough",
      "uri": "textures/painted_wooden_table_arm_1k.jpg"
    }
  ],
  "accessors": [
    {
      "bufferView": 0,
      "componentType": 5126,
      "count": 686,
      "max": [
        1.20228111743927,
        0.9581443071365356,
        0.565796434879303
      ],
      "min": [
        -1.2033226490020752,
        -0.0004928112030029297,
        -0.5711875557899475
      ],
      "type": "VEC3"
    },
    {
      "bufferView": 1,
      "componentType": 5126,
      "count": 686,
      "type": "VEC3"
    },
    {
      "bufferView": 2,
      "componentType": 5126,
      "count": 686,
      "type": "VEC2"
    },
    {
      "bufferView": 3,
      "componentType": 5123,
      "count": 1800,
      "type": "SCALAR"
    }
  ],
  "bufferViews": [
    {
      "buffer": 0,
      "byteLength": 8232,
      "byteOffset": 0,
      "target": 34962
    },
    {
      "buffer": 0,
      "byteLength": 8232,
      "byteOffset": 8232,
      "target": 34962
    },
    {
      "buffer": 0,
      "byteLength": 5488,
      "byteOffset": 16464,
      "target": 34962
    },
    {
      "buffer": 0,
      "byteLength": 3600,
      "byteOffset": 21952,
      "target": 34963
    }
  ],
  "samplers": [
    {
      "magFilter": 9729,
      "minFilter": 9987
    }
  ],
  "buffers": [
    {
      "byteLength": 25552,
      "uri": "painted_wooden_table.bin"
    }
  ]
}