{
  "asset": {
    "generator": "Khronos glTF Blender I/O v3.5.30",
    "version": "2.0"
  },
  "extensionsUsed": [
    "KHR_materials_clearcoat",
    "KHR_materials_specular",
    "KHR_materials_ior"
  ],
  "scene": 0,
  "scenes": [
    {
      "name": "Scene",
      "nodes": [
        0,
        1,
        2
      ]
    }
  ],
  "nodes": [
    {
      "mesh": 0,
      "name": "vintage_grandfather_clock_01_body",
      "rotation": [
        0,
        -0.7071068286895752,
        0,
        0.7071068286895752
      ],
      "translation": [
        0.0627659484744072,
        0,
        -0.0627659484744072
      ]
    },
    {
      "mesh": 1,
      "name": "vintage_grandfather_clock_01_minute_hand",
      "rotation": [
        0.009896320290863514,
        -0.03510347381234169,
        -0.17700932919979095,
        0.9835332036018372
      ],
      "translation": [
        0.0627659484744072,
        1.7319388389587402,
        0.0627659484744072
      ]
    },
    {
      "mesh": 2,
      "name": "vintage_grandfather_clock_01_houd_hand",
      "translation": [
        0.0627659484744072,
        1.7319388389587402,
        0.0627659484744072
      ]
    }
  ],
  "materials": [
    {
      "doubleSided": true,
      "name": "vintage_grandfather_clock_01",
      "normalTexture": {
        "index": 0
      },
      "pbrMetallicRoughness": {
        "baseColorTexture": {
          "index": 1
        },
        "metallicRoughnessTexture": {
          "index": 2
        }
      }
    },
    {
      "alphaMode": "BLEND",
      "doubleSided": true,
      "extensions": {
        "KHR_materials_clearcoat": {
          "clearcoatFactor": 0.800000011920929,
          "clearcoatRoughnessFactor": 0.029999999329447746
        },
        "KHR_materials_specular": {
          "specularColorFactor": [
            1.897086119821904,
            1.897086119821904,
            1.897086119821904
          ]
        },
        "KHR_materials_ior": {
          "ior": 1.4500000476837158
        }
      },
      "name": "vintage_grandfather_clock_01_glass",
      "normalTexture": {
        "index": 3
      },
      "pbrMetallicRoughness": {
        "baseColorTexture": {
          "index": 4
        },
        "metallicRoughnessTexture": {
          "index": 5
        }
      }
    }
  ],
  "meshes": [
    {
      "name": "Cylinder.001",
      "primitives": [
        {
          "attributes": {
            "POSITION": 0,
            "TEXCOORD_0": 1,
            "NORMAL": 2
          },
          "indices": 3,
          "material": 0
        },
        {
          "attributes": {
            "POSITION": 4,
            "TEXCOORD_0": 5,
            "NORMAL": 6
          },
          "indices": 7,
          "material": 1
        }
      ]
    },
    {
      "name": "Cylinder.007",
      "primitives": [
        {
          "attributes": {
            "POSITION": 8,
            "TEXCOORD_0": 9,
            "NORMAL": 10
          },
          "indices": 11,
          "material": 0
        }
      ]
    },
    {
      "name": "Cylinder.008",
      "primitives": [
        {
          "attributes": {
            "POSITION": 12,
            "TEXCOORD_0": 13,
            "NORMAL": 14
          },
          "indices": 15,
          "material": 0
        }
      ]
    }
  ],
  "textures": [
    {
      "sampler": 0,
      "source": 0
    },
    {
      "sampler": 0,
      "source": 1
    },
    {
      "sampler": 0,
      "source": 2
    },
    {
      "sampler": 0,
      "source": 0
    },
    {
      "sampler": 0,
      "source": 1
    },
    {
      "sampler": 0,
      "source": 2
    }
  ],
  "images": [
    {
      "mimeType": "image/jpeg",
      "name": "vintage_grandfather_clock_01_nor_gl",
      "uri": "textures/vintage_grandfather_clock_01_nor_gl_1k.jpg"
    },
    {
      "mimeType": "image/jpeg",
      "name": "vintage_grandfather_clock_01_diff",
      "uri": "textures/vintage_grandfather_clock_01_diff_1k.jpg"
    },
    {
      "mimeType": "image/jpeg",
      "name": "vintage_grandfather_clock_01_metal-vintage_grandfather_clock_01_rough",
      "uri": "textures/vintage_grandfather_clock_01_arm_1k.jpg"
    }
  ],
  "accessors": [
    {
      "bufferView": 0,
      "componentType": 5126,
      "count": 8710,
      "max": [
        0.23840990662574768,
        2.1905269622802734,
        0.31281235814094543
      ],
      "min": [
        -0.18820664286613464,
        -0.00006496906280517578,
        -0.31281235814094543
      ],
      "type": "VEC3"
    },
    {
      "bufferView": 1,
      "componentType": 5126,
      "count": 8710,
      "type": "VEC2"
    },
    {
      "bufferView": 2,
      "componentType": 5126,
      "count": 8710,
      "type": "VEC3"
    },
    {
      "bufferView": 3,
      "componentType": 5123,
      "count": 25089,
      "type": "SCALAR"
    },
    {
      "bufferView": 4,
      "componentType": 5126,
      "count": 20,
      "max": [
        0.14483040571212769,
        2.046146869659424,
        0.1870330274105072
      ],
      "min": [
        0.1448303908109665,
        1.5593708753585815,
        -0.1870325803756714
      ],
      "type": "VEC3"
    },
    {
      "bufferView": 5,
      "componentType": 5126,
      "count": 20,
      "type": "VEC2"
    },
    {
      "bufferView": 6,
      "componentType": 5126,
      "count": 20,
      "type": "VEC3"
    },
    {
      "bufferView": 7,
      "componentType": 5123,
      "count": 57,
      "type": "SCALAR"
    },
    {
      "bufferView": 8,
      "componentType": 5126,
      "count": 90,
      "max": [
        0.005181816406548023,
        0.1576986312866211,
        -0.007476486265659332
      ],
      "min": [
        -0.004546710290014744,
        -0.007872223854064941,
        -0.007476486265659332
      ],
      "type": "VEC3"
    },
    {
      "bufferView": 9,
      "componentType": 5126,
      "count": 90,
      "type": "VEC2"
    },
    {
      "bufferView": 10,
      "componentType": 5126,
      "count": 90,
      "type": "VEC3"
    },
    {
      "bufferView": 11,
      "componentType": 5123,
      "count": 348,
      "type": "SCALAR"
    },
    {
      "bufferView": 12,
      "componentType": 5126,
      "count": 105,
      "max": [
        0.0009957024594768882,
        0.048557281494140625,
        -0.0068830400705337524
      ],
      "min": [
        -0.07601214200258255,
        -0.0018367767333984375,
        -0.007313560228794813
      ],
      "type": "VEC3"
    },
    {
      "bufferView": 13,
      "componentType": 5126,
      "count": 105,
      "type": "VEC2"
    },
    {
      "bufferView": 14,
      "componentType": 5126,
      "count": 105,
      "type": "VEC3"
    },
    {
      "bufferView": 15,
      "componentType": 5123,
      "count": 252,
      "type": "SCALAR"
    }
  ],
  "bufferViews": [
    {
      "buffer": 0,
      "byteLength": 104520,
      "byteOffset": 0,
      "target": 34962
    },
    {
      "buffer": 0,
      "byteLength": 69680,
      "byteOffset": 104520,
      "target": 34962
    },
    {
      "buffer": 0,
      "byteLength": 104520,
      "byteOffset": 174200,
      "target": 34962
    },
    {
      "buffer": 0,
      "byteLength": 50178,
      "byteOffset": 278720,
      "target": 34963
    },
    {
      "buffer": 0,
      "byteLength": 240,
      "byteOffset": 328900,
      "target": 34962
    },
    {
      "buffer": 0,
      "byteLength": 160,
      "byteOffset": 329140,
      "target": 34962
    },
    {
      "buffer": 0,
      "byteLength": 240,
      "byteOffset": 329300,
      "target": 34962
    },
    {
      "buffer": 0,
      "byteLength": 114,
      "byteOffset": 329540,
      "target": 34963
    },
    {
      "buffer": 0,
      "byteLength": 1080,
      "byteOffset": 329656,
      "target": 34962
    },
    {
      "buffer": 0,
      "byteLength": 720,
      "byteOffset": 330736,
      "target": 34962
    },
    {
      "buffer": 0,
      "byteLength": 1080,
      "byteOffset": 331456,
      "target": 34962
    },
    {
      "buffer": 0,
      "byteLength": 696,
      "byteOffset": 332536,
      "target": 34963
    },
    {
      "buffer": 0,
      "byteLength": 1260,
      "byteOffset": 333232,
      "target": 34962
    },
    {
      "buffer": 0,
      "byteLength": 840,
      "byteOffset": 334492,
      "target": 34962
    },
    {
      "buffer": 0,
      "byteLength": 1260,
      "byteOffset": 335332,
      "target": 34962
    },
    {
      "buffer": 0,
      "byteLength": 504,
      "byteOffset": 336592,
      "target": 34963
    }
  ],
  "samplers": [
    {
      "magFilter": 9729,
      "minFilter": 9987
    }
  ],
  "buffers": [
    {
      "byteLength": 337096,
      "uri": "vintage_grandfather_clock_01.bin"
    }
  ]
}