<?xml version="1.0" encoding="UTF-8"?>
<!-- Created with Inkscape (http://www.inkscape.org/) -->
<svg width="70" height="70" version="1.1" viewBox="0 0 70 70" xmlns="http://www.w3.org/2000/svg" xmlns:cc="http://creativecommons.org/ns#" xmlns:dc="http://purl.org/dc/elements/1.1/" xmlns:rdf="http://www.w3.org/1999/02/22-rdf-syntax-ns#">
 <metadata>
  <rdf:RDF>
   <cc:Work rdf:about="">
    <dc:format>image/svg+xml</dc:format>
    <dc:type rdf:resource="http://purl.org/dc/dcmitype/StillImage"/>
    <dc:title/>
   </cc:Work>
  </rdf:RDF>
 </metadata>
 <g>
  <text x="35" y="45" fill="#000000" font-family="sans-serif" font-size="33.333px" letter-spacing="0px" text-align="center" text-anchor="middle" word-spacing="0px" style="line-height:1.25" xml:space="preserve"><tspan x="35" y="45" font-family="sans-serif" font-size="33.333px" font-weight="bold" letter-spacing="0px">RB</tspan></text>
  <path d="m61.598 50s2.3172 1e-6 3.815-1.768 1.117-4.0537 1.117-4.0537l-2.9524-17.711s-0.49076-2.9453-2.516-5.1393-4.922-2.9184-4.922-2.9184l-37.625-9.0888s-2.733-0.74932-5.6239 0.22637c-2.8908 0.97568-4.6108 3.2279-4.6108 3.2279l-2.9909 3.7386s-1.3081 1.6351-1.8684 3.7263-0.098956 4.6922-0.098956 4.6922l3.482 20.89s0.3013 1.8083 1.7001 2.9932c1.3987 1.185 3.232 1.185 3.232 1.185z" fill="none" stroke="#000" stroke-width="5"/>
 </g>
</svg>
